<svg id="Layer_1" data-name="Layer 1" xmlns="http://www.w3.org/2000/svg" viewBox="0 0 210.65 310">
  <defs>
    <style>
      .cls-1 {
        fill: #093a82;
      }
    </style>
  </defs>
  <title>burgermenu</title>
  <g>
    <path class="cls-1" d="M210,110.82H0V78.19l21.72-24.4h1.13l-.72-.18-.18,0-.23-.06L20.16,33.78c0-.05-.07-.12-.11-.17a2.39,2.39,0,0,1-.15-.37,1.43,1.43,0,0,1,0-.74,3.9,3.9,0,0,1,1.82-1.89.08.08,0,0,1,0-.06c0-.44,1-1.05,2.88-1.75.38-.15.78-.29,1.23-.44C36,25,64,19.72,96.56,18.56q6.38-.22,12.94-.23h.61a60.72,60.72,0,0,1,13.1-12.12C128.13,2.83,133.16.43,137,0a10.22,10.22,0,0,1,2.38.1,16.22,16.22,0,0,1,3.1.82c.28.11.57.21.85.34s.67.27,1,.43a33.4,33.4,0,0,1,6.45,4,36.33,36.33,0,0,1,2.95,2.56,27.79,27.79,0,0,1,3.61,4.2c1.66,2.4,2.63,4.82,2.51,7a5.41,5.41,0,0,1-.69,2.42c2.26.34,4.42.7,6.46,1.06,3.42.61,6.52,1.23,9.28,1.85,8.94,2,14.25,4,14.86,5.25,2.23.92,3.39,1.74,3.39,2.36l-.1.68L189.76,53.5s-.49.11-1.44.29h1.44l20.06,24.4Z"/>
    <polygon class="cls-1" points="210.27 190.49 0 190.49 0 144.86 210.09 144.86 210.27 190.49"/>
    <path class="cls-1" d="M200.06,287.17c2.33,4.42,5.74,11.81,3.91,14.27-1.1,1.47-11.49,3.25-26.91,4.8s-35.87,2.87-57.13,3.45c-3.67.11-7.37.18-11.06.23s-7.39.08-11.07.08l-4.58,0c-6.09,0-12.1-.16-17.94-.34q-2.19-.06-4.35-.15c-2.87-.1-5.71-.22-8.48-.36H62c-2.78-.14-5.51-.28-8.16-.44l-.92-.05-4.75-.3-3.44-.24-4.32-.32-.56,0c-2.3-.18-4.52-.36-6.64-.55L30.7,307l-4.26-.41-2.26-.24c-1.87-.2-3.63-.4-5.24-.6-2.26-.27-4.27-.54-6-.8-4.3-.65-6.82-1.22-7.1-1.62-1.68-2.47.46-9.73,2.25-14.67q.18-.5.36-1c-1.37-.22-2.58-.43-3.63-.61-1.58-.28-2.78-.49-3.6-.65L0,286.15V224.53H210.41l.24,61S206.72,286.19,200.06,287.17Z"/>
  </g>
</svg>
